<svg width="18" height="18" viewBox="0 0 18 18" fill="none" xmlns="http://www.w3.org/2000/svg">
<path fill-rule="evenodd" clip-rule="evenodd" d="M8.54182 0C7.16619 0 5.93149 0.901027 5.53369 2.22704L5.51645 2.28449C4.19809 2.43154 2.88783 2.675 1.59628 3.01488L0.466095 3.3123C0.132282 3.40014 -0.0671137 3.74197 0.0207317 4.07578C0.108577 4.40959 0.450399 4.60899 0.784212 4.52114L1.91439 4.22373C6.25872 3.08048 10.8249 3.08048 15.1692 4.22373L16.2994 4.52114C16.6332 4.60899 16.9751 4.40959 17.0629 4.07578C17.1508 3.74197 16.9514 3.40014 16.6175 3.3123L15.4874 3.01488C14.1958 2.675 12.8855 2.43154 11.5672 2.28449L11.55 2.22704C11.1521 0.901026 9.91745 0 8.54182 0ZM10.1658 2.16465C9.83074 1.60903 9.21601 1.25 8.54182 1.25C7.86763 1.25 7.2529 1.60903 6.91783 2.16465C7.99952 2.10017 9.08412 2.10017 10.1658 2.16465Z" fill="#CC312D"/>
<path d="M1.79744 4.96335C2.13994 4.92043 2.45238 5.16328 2.4953 5.50578L3.60986 14.4C3.72741 15.338 4.52493 16.0418 5.47031 16.0418H11.6133C12.5587 16.0418 13.3562 15.338 13.4738 14.4L14.5883 5.50578C14.6313 5.16328 14.9437 4.92043 15.2862 4.96335C15.6287 5.00627 15.8716 5.31871 15.8286 5.66121L14.7141 14.5554C14.5182 16.1188 13.189 17.2918 11.6133 17.2918H5.47031C3.89467 17.2918 2.56548 16.1188 2.36956 14.5554L1.255 5.66121C1.21208 5.31871 1.45494 5.00627 1.79744 4.96335Z" fill="#CC312D"/>
</svg>
