<svg width="28" height="28" viewBox="0 0 28 28" fill="none" xmlns="http://www.w3.org/2000/svg">
<path d="M12.4868 2.39424C12.7596 1.71947 13.42 1.278 14.1486 1.278H25.6412C26.6246 1.27082 27.425 2.06403 27.4286 3.04747C27.4286 3.27718 27.3855 3.5033 27.303 3.71506L18.5023 25.5589C18.2295 26.2372 17.5691 26.6787 16.8405 26.6751H5.34793C4.36449 26.6787 3.56411 25.8891 3.56052 24.9056C3.56052 24.6759 3.60359 24.4498 3.68614 24.238L12.4868 2.39424Z" fill="url(#paint0_linear_18894_894)"/>
<path d="M7.61988 16.5176C11.83 16.5176 15.2397 13.1043 15.2397 8.8978C15.2397 4.69127 11.83 1.27795 7.61988 1.27795C3.40976 1.27795 3.05176e-05 4.69127 3.05176e-05 8.8978C3.05176e-05 13.1079 3.40976 16.5176 7.61988 16.5176Z" fill="#0A33FF"/>
<path d="M15.2397 8.89773C15.2397 13.1078 11.8192 16.5212 7.60912 16.5176C7.34352 16.5176 7.07792 16.5032 6.81232 16.4745L12.293 2.87866C14.1558 4.32152 15.2433 6.54322 15.2397 8.89773Z" fill="url(#paint1_linear_18894_894)"/>
<defs>
<linearGradient id="paint0_linear_18894_894" x1="20.279" y1="1.29954" x2="10.6815" y2="26.7325" gradientUnits="userSpaceOnUse">
<stop stop-color="#FFD60A"/>
<stop offset="1" stop-color="#F5BE09"/>
</linearGradient>
<linearGradient id="paint1_linear_18894_894" x1="14.8377" y1="3.93029" x2="9.39294" y2="17.4938" gradientUnits="userSpaceOnUse">
<stop stop-color="#051A80"/>
<stop offset="1" stop-color="#0A33FF"/>
</linearGradient>
</defs>
</svg>
